Patient4_TMGait_0pt5_02_right_08_EMG.mot
version=1
nRows=40
nColumns=33
inDegrees=no
endheader
time	1LAddLong	2LGlutMax	3LGlutMed	4LIliopsoas	5LSemiMemb	6LBicFemLong	7LRecFem	8LVastMed	9LVastLat	10LGasMed	11LTibAnt	12lTibPost	13LPeroneusLong	14LSol	15LExtDigLong	16LFlexDigLong	17RAddLong	18RGlutMax	19RGlutMed	20RIliopsoas	21RSemiMemb	22RBicFemLong	23RRecFem	24RVastMed	25RVastLat	26RGasMed	27RTibAnt	28RTibPost	29RPeroneusLong	30RSol	31RExtDigLong	32RFlexDigLong
10.46	-0.011292	-0.022583	-0.099945	0.009918	-0.002441	0.048981	0.01297	-0.01297	-0.11215	0.004578	-0.043488	-0.026855	0.012054	-0.093079	-0.32898	0.021515	-0.12222	0.36575	0.33844	-0.09201	0.19714	0.000458	0.26886	0.075378	-0.023346	-0.003662	-0.19623	-0.010071	0.103	-0.031586	0.007019	-0.005493
10.461	-0.014343	-0.051575	-0.1648	0.007019	-0.014801	0.073853	-0.038605	-0.009003	-0.053711	0.014954	0.008545	-0.013275	0.15961	-0.043335	-0.11398	0.006561	-0.12344	0.38895	0.2388	-0.011139	0.19928	-0.017853	0.1947	0.082245	-0.025635	-0.004578	-0.39948	-0.011444	0.14221	-0.029602	0.007629	-0.010986
10.462	-0.009308	-0.090332	-0.16281	0.00412	0.00412	0.11627	-0.097961	-0.002899	0.036926	0.023651	0.009918	-0.018921	-0.009308	-0.058289	-0.081177	0.006104	-0.10178	0.46081	0.20584	0.050964	0.19974	-0.00351	0.17303	0.054932	-0.014648	-0.005035	-0.29068	-0.010071	0.096436	-0.042419	0.003662	-0.003052
10.463	-0.014191	-0.10849	-0.017853	-0.010834	0.006256	0.15533	-0.016785	0.006561	0.027313	0.014954	0.041809	-0.010681	-0.1033	-0.083313	0.012817	0.003204	-0.079803	0.50003	0.061035	0.036011	0.21484	-0.002747	0.061951	0.04303	-0.013885	0.000916	-0.18601	-0.010071	0.049438	-0.064392	0.005951	-0.014648
10.464	-0.008392	-0.12054	-0.022888	0.029144	0.040436	0.055542	-0.002136	0.00351	0.035553	0.014343	0.034332	-0.009155	-0.057526	-0.049438	0.092468	0.009613	-0.074615	0.51102	0.25543	-0.001068	0.21652	-0.004578	0.005341	0.012665	-0.032959	0.001984	-0.27161	-0.005798	0.032043	-0.064545	0.004578	-0.012207
10.465	-0.02121	-0.098114	0.085449	0.004883	0.034332	-0.017242	-0.02533	0.007172	0.009918	0.010071	0.043488	-0.001068	-0.082855	0.00824	0.053711	0.016327	-0.070801	0.60669	0.33539	0.065002	0.21912	-0.006256	0.064392	0.060883	-0.027618	-0.003357	-0.095367	-0.010529	-0.037689	-0.035553	0.002441	-0.005646
10.466	-0.019684	-0.10529	0.080566	-0.021057	0.005035	-0.033875	-0.005188	0.019836	0.025177	0.016174	0.13138	-0.016785	-0.12375	0.028687	0.052185	0.009155	-0.054321	0.61203	0.23209	0.121	0.21835	0.006561	0.10407	0.11002	-0.027161	0.005035	0.074768	-0.009003	-0.049438	-0.015564	0.00412	-0.011749
10.467	-0.022583	-0.095825	0.059204	-0.012665	-0.042419	-0.03479	0.000916	0.009308	0.052948	-0.00885	0.15762	-0.00946	-0.12787	-0.005798	0.086975	-0.002594	-0.039063	0.62225	0.24979	0.18494	0.22156	0.003967	0.11307	0.095978	-0.028381	-0.003967	0.36835	-0.008087	-0.035858	-0.015564	0.005341	-0.007782
10.468	-0.027466	-0.097961	0.011902	0.016632	-0.11505	-0.04837	-0.028534	0.009308	0.07843	-0.015106	0.18341	-0.00946	0.020752	0.029602	0.10529	0.010834	-0.014648	0.49133	0.18295	0.19562	0.22522	-0.010071	0.15289	0.053406	-0.015717	-0.003357	0.41794	-0.00885	-0.031433	-0.005951	0.000763	-0.002136
10.469	-0.019989	-0.12817	-0.11169	0.019379	-0.14954	-0.068207	-0.075378	0.011292	0.094757	0.009766	0.081482	-0.012817	0.3363	-0.015411	0.13367	0.014954	0.009155	0.46005	0.096893	0.14206	0.23727	-0.005798	0.27618	0.058746	-0.036621	-0.007629	0.029602	0.002747	0.048676	-0.023193	0.003357	-0.002747
10.47	-0.028992	-0.15411	-0.11963	-0.004578	-0.11704	-0.040436	-0.069427	0.003204	0.1088	0.012054	-0.21469	-0.02533	0.48538	-0.14969	0.11856	-0.002594	0.022583	0.43915	0.16083	0.1033	0.23544	0.007629	0.32318	0.02243	-0.032654	-0.001526	-0.16327	-0.006256	0.064392	-0.061951	0.003204	0.000153
10.471	-0.006866	-0.17563	-0.076904	-0.013123	-0.077057	-0.32105	-0.0914	0.00473	0.088501	0.049744	-0.17319	-0.007019	-0.084991	-0.27924	0.12512	-0.003204	0.06012	0.4155	0.12436	0.040894	0.22736	0.011292	0.30701	0.046692	-0.028076	-0.005493	-0.097504	-0.007019	-0.009918	-0.098114	0.004578	0.003052
10.472	-0.010529	-0.20981	-0.020294	0.011292	-0.005188	-0.21881	0.013428	0.034943	0.014954	0.01297	-0.051422	-0.000458	-0.48706	-0.32684	0.12024	0.00412	0.093536	0.36301	0.13947	-0.065155	0.22095	-0.007782	0.14572	0.02121	-0.025177	0.000305	0.12695	-0.004272	-0.055695	-0.11658	-0.001984	0.004272
10.473	-0.004883	-0.21103	-0.072479	0.004425	-0.036011	0.058594	0.079041	0.013885	-0.052032	-0.008545	0.032654	-0.005341	-0.09613	-0.17487	0.08606	0.005341	0.093536	0.31128	0.075226	-0.1384	0.20813	-0.007172	0.086365	-0.054626	-0.033722	-0.012207	0.50598	0.004272	-0.12863	-0.063171	0.003967	0.000305
10.474	0.008698	-0.23453	-0.10971	0.006256	0.090637	0.16571	0.10178	0.017853	-0.040894	0.001678	0.066376	-0.005188	0.16708	-0.11093	0.090332	0.001984	0.095673	0.29724	0.065918	-0.16708	0.20081	-0.015564	0.018158	-0.055084	-0.051727	-0.009918	0.53879	-0.003815	-0.026703	-0.047913	0.001831	0.000458
10.475	0.000763	-0.24338	-0.12573	0.006256	0.11566	0.1535	0.090485	0.002899	-0.003052	-0.005188	-0.023346	-0.007477	0.12116	-0.13458	0.081329	0.009613	0.076141	0.26871	-0.031281	-0.17364	0.18295	-0.02533	-0.014954	-0.054779	-0.041199	-0.002136	-0.1149	-0.003357	0.20065	-0.081329	0.004883	0.002441
10.476	0.003815	-0.22461	-0.078278	0.015259	0.070496	0.15503	0.064545	0.021362	0.011597	-0.00885	-0.006104	-0.006104	-0.15488	0.045776	0.10101	-0.000305	0.044403	0.31128	-0.019531	-0.18585	0.17792	-0.019379	-0.050354	-0.066986	-0.037537	-0.00061	-0.38452	-0.002899	0.076599	-0.059509	0.001984	-0.003052
10.477	-0.010223	-0.24048	-0.14191	0.003052	0.04776	0.18875	-0.00412	0.024109	0.028839	-0.026703	-0.03006	-0.003357	0.011139	0.20004	0.14832	0.001678	-0.010376	0.27573	-0.090485	-0.12634	0.16754	-0.027466	-0.075989	-0.045776	-0.044708	-0.00473	-0.39536	0.001831	-0.44113	-0.066071	0.000458	0.001526
10.478	-0.014191	-0.23987	-0.11551	-0.026245	0.01236	0.12054	-0.087891	0.02182	0.018158	-0.054779	-0.044861	-0.000763	0.27618	0.21271	-0.066833	-0.00061	-0.038147	0.30731	0.021667	-0.02182	0.15549	-0.035858	-0.036926	-0.050049	-0.028839	-0.003052	-0.34012	-0.004272	-0.14816	-0.1062	0.000305	-0.001831
10.479	-0.016327	-0.23422	-0.056	-0.014496	-0.001373	0.001068	-0.11917	0.027313	-0.023956	-0.055542	-0.043793	-0.013885	-0.14404	0.16296	-0.17609	0.007019	-0.041962	0.30426	0.16724	0.065613	0.1474	-0.013123	0.046692	-0.030518	-0.02533	0.012817	-0.3833	0.000458	0.17578	-0.1152	-0.000305	0.001831
10.48	-0.003357	-0.24368	-0.099182	0.004272	0.023193	-0.22598	-0.11368	0.017853	-0.013123	-0.02655	-0.038605	-0.005798	-0.12329	0.1033	-0.24017	0.007935	-0.00351	0.22873	0.029449	0.13458	0.14572	-0.02243	0.059052	-0.054169	-0.042572	0.00885	-0.13336	-0.003357	0.1857	-0.07431	0.000916	-0.002136
10.481	0.019073	-0.23972	-0.076294	0.003357	0.014496	-0.26413	-0.087738	0.005646	0.026093	-0.000305	0.002441	-0.010834	-0.16312	0.090332	-0.17761	0.012054	0.029755	0.25207	0.076904	0.020142	0.14358	-0.027771	0.038452	-0.049591	-0.046997	0.001831	0.058746	-0.010529	0.019226	0.009613	-0.000916	-0.020142
10.482	0.017853	-0.25009	-0.03952	0.010986	0.007019	-0.11063	-0.019379	0.009308	-0.02121	0.012665	0.018463	-0.001984	0.13412	0.05188	-0.17334	0.001068	0.011749	0.21362	-0.051422	-0.05188	0.14069	-0.028534	0.003357	-0.068512	-0.050201	-0.003052	0.2214	-0.006561	-0.045471	0.071106	-0.000458	-0.012207
10.483	0.000305	-0.27298	-0.052338	0.028687	-0.054474	0.019531	-0.010681	0.001984	-0.01709	-0.066833	0.038452	0.006104	0.32913	0.079956	-0.11002	0.00824	0.002136	0.19363	-0.121	-0.033264	0.13733	-0.020447	0.022125	-0.082703	-0.056152	-0.002899	0.12009	-0.002899	-0.029602	0.13123	-0.000153	-0.009918
10.484	0.020599	-0.23209	-0.096893	0.01236	-0.091858	0.04364	-0.054779	0.020294	0.019684	-0.069427	0.027161	-0.006561	0.10071	0.086212	-0.12131	0.011292	-0.00061	0.15167	-0.22903	-0.009918	0.12817	-0.004578	0.019073	-0.087585	-0.038605	-0.003815	-0.2475	-0.001678	0.027924	0.10727	-0.001068	-0.003052
10.485	0.009613	-0.20264	-0.092163	-0.006714	-0.062714	0.034485	-0.039978	0.004272	0.013123	-0.042572	0.001526	-0.00473	0.66956	0.060425	0.12329	0.016785	-0.018005	0.19302	-0.25971	0.020752	0.11337	-0.02243	0.021515	-0.058746	-0.030823	0.012665	-0.327	-0.006104	0.13809	0.092163	0.002136	-0.004272
10.486	0.00061	-0.20416	-0.089111	0.010529	0.038147	0.018921	-0.02121	0.007935	0.019226	-0.012817	-0.022888	0.006409	0.16159	0.018768	0.35873	0.021515	-0.035248	0.20172	-0.40634	0.041656	0.1181	-0.024261	0.013428	-0.074615	-0.034943	-0.003204	-0.010376	-0.003967	0.040741	0.11597	0.00061	-0.004272
10.487	0.010681	-0.19318	-0.10727	0.001678	0.029297	0.029449	-0.019226	0.014801	0.00061	0.021362	0.006714	0.011749	-0.76248	0.001221	0.5632	0.01236	-0.024414	0.19409	-0.42023	0.10361	0.11536	-0.00351	-0.016022	-0.058289	-0.016632	-0.00412	0.15427	-0.003204	-0.27329	0.12253	0	-0.009766
10.488	-0.009766	-0.1889	-0.033569	-0.001526	0.024414	0.035858	0.01236	0.013428	-0.002136	0.04837	0.008698	0.005951	-0.42282	-0.023804	-0.21637	0.015259	-0.014038	0.21866	-0.33646	0.15366	0.1152	-0.001068	-0.012817	-0.093842	-0.027313	-0.008087	0.12283	-0.003204	-0.27985	0.12787	-0.001678	-0.004578
10.489	-0.011292	-0.21423	-0.12436	0.003662	-0.005798	0.031891	0.014496	0.016785	-0.007477	0.047913	-0.019073	0	-0.024261	-0.084381	-0.37811	0.008392	0.032196	0.18463	-0.54062	0.14954	0.10498	-0.003662	0.006866	-0.078278	-0.023041	-0.010681	0.082092	-0.007782	-0.041199	0.112	0	-0.003967
10.49	-0.030365	-0.19501	-0.22598	0.005493	-0.041962	0.03418	0.013275	0.017853	0.003204	0.012207	-0.045471	0.000153	-0.017548	-0.088501	-0.33829	0.017242	0.017242	0.14099	-0.68893	0.13763	0.091858	-0.014191	0.049896	-0.093536	-0.033112	0.001221	0.12543	-0.006256	0.18066	0.027618	0.002136	-0.002594
10.491	-0.022736	-0.16724	-0.20737	0.016174	-0.034943	0.028839	-0.014191	0.014191	0.004578	-0.00061	-0.033722	0.008392	0.030975	-0.029907	0.17883	0.00824	0.009766	0.17685	-0.63919	0.043793	0.10101	-0.008698	0.10483	-0.085449	-0.026703	-0.005341	-0.048065	-0.003357	0.25421	0.047455	-0.001373	-0.002594
10.492	-0.014801	-0.12878	-0.020752	-0.00473	-0.095062	0.037537	-0.066071	0.022125	-0.015259	-0.012054	-0.004425	0.001678	0.10498	-0.032501	-0.12558	0.002747	-0.000916	0.16464	-0.47211	-0.049744	0.072174	-0.015259	0.074005	-0.096588	-0.027771	-0.003204	-0.17624	-0.008392	0.26169	0.001373	0.000305	0.000305
10.493	-0.015106	-0.10971	0.074463	-0.012817	-0.12589	0.043488	-0.078888	0.005341	0.002594	-0.02533	0.014191	0.002441	-0.063629	-0.061646	0.049744	0.013733	-0.030975	0.15549	-0.45517	-0.18982	0.068207	-0.016174	0.038147	-0.084686	-0.032196	-0.004425	0.029449	-0.002747	0.28305	-0.018158	0.000305	0
10.494	0.003357	-0.097351	0.049438	0.003052	-0.092621	0.009003	-0.032806	0.011139	0.00473	-0.001068	0.032654	-0.002594	-0.43304	0.009003	0.112	0.009155	0.004425	0.14694	-0.42282	-0.16541	0.053406	-0.02243	0.076752	-0.085907	-0.026855	-0.00412	0.18799	-0.003357	-0.17914	-0.039978	0.000153	0.00351
10.495	0.019836	-0.0737	0.035553	0.020599	0.070038	0.02121	-0.009003	0.015259	0.002594	-0.002136	0.055084	0.00351	-0.27329	0.095825	-0.097961	-0.000458	-0.001526	0.14297	-0.3447	-0.13321	0.062866	-0.002747	0.053864	-0.093231	-0.027466	-0.005951	0.28763	-0.009003	-0.3183	-0.058289	0.000763	-0.009003
10.496	0.011902	-0.063019	-0.005951	0.019531	0.14023	0.08255	-0.028076	0.007477	0.015411	-0.012207	0.023651	0.006256	0.12054	-0.010834	-0.036011	0.015717	-0.034332	0.10529	-0.35782	-0.050812	0.073242	-0.008698	0.043488	-0.13382	-0.037231	-0.001678	0.19257	-0.005188	-0.0737	-0.065613	-0.002594	-0.002289
10.497	0.015564	-0.053253	-0.013885	0.007782	0.09613	0.11826	-0.028534	0.01709	0.001221	-0.005035	0.010223	-0.005951	0.25955	-0.083618	-0.033569	0.003967	0.019379	0.041962	-0.38467	0.1532	0.085297	-0.020752	0.10132	-0.14984	-0.039978	0.002594	0.079956	-0.00946	-0.024109	-0.063171	0.000153	-0.003357
10.498	0.004425	-0.030975	0.036011	-0.02655	0.040283	0.08194	-0.020294	0.01236	-0.014038	0.009155	0.028839	0.000916	0.13931	-0.086975	-0.082245	-0.011902	0.069122	0.041962	-0.37445	0.29129	0.069885	-0.048828	0.12375	-0.093842	-0.028839	-0.003357	-0.067749	-0.001831	0.008087	-0.04425	0.000458	-0.007629
10.499	-0.001984	-0.036469	0.081482	-0.004578	0.033264	0.041199	0.000916	0.002747	-0.015564	0.006714	0.04303	-0.004578	-0.31464	-0.008087	0.14282	0.005188	0.068512	-0.004578	-0.41351	0.19379	0.057526	-0.051117	0.1152	-0.097809	-0.047302	-0.00946	0.15564	-0.004578	0.074005	-0.05722	0.000458	-0.00946
